#N canvas 0 0 460 407 10;
#X obj 78 262 dac~;
#X obj 128 144 osc~;
#X obj 77 144 osc~;
#X obj 26 144 osc~;
#X obj 26 95 vsl 10 40 0 1000 0 0 empty empty f1 0 -8 1 8 -260818 -1
-1 0 1;
#X obj 77 95 vsl 10 40 0 1000 0 0 empty empty f2 0 -8 1 8 -260818 -1
-1 0 1;
#X obj 128 95 vsl 10 40 0 1000 0 0 empty empty f3 0 -8 1 8 -260818
-1 -1 0 1;
#X obj 27 168 *~ 0.3;
#X obj 77 168 *~ 0.3;
#X obj 127 168 *~ 0.3;
#X obj 77 237 *~ 0.16;
#X obj 283 297 dac~;
#X obj 333 143 osc~;
#X obj 282 143 osc~;
#X obj 231 143 osc~;
#X obj 231 94 vsl 10 40 0 1000 0 0 empty empty f1 0 -8 1 8 -260818
-1 -1 0 1;
#X obj 282 94 vsl 10 40 0 1000 0 0 empty empty f2 0 -8 1 8 -260818
-1 -1 0 1;
#X obj 333 94 vsl 10 40 0 1000 0 0 empty empty f3 0 -8 1 8 -260818
-1 -1 0 1;
#X obj 232 167 *~ 0.3;
#X obj 282 167 *~ 0.3;
#X obj 332 167 *~ 0.3;
#X obj 282 272 *~ 0.16;
#X obj 283 211 clip~ -0.5 0.5;
#X obj 125 192 tgl 15 0 empty empty empty 0 -6 0 8 -262144 -1 -1 0
1;
#X obj 78 212 *~;
#X obj 305 230 tgl 15 0 empty empty empty 0 -6 0 8 -262144 -1 -1 0
1;
#X obj 283 248 *~;
#X text 25 35 Mixing 3 cosines;
#X text 218 35 Clipping the sum of three;
#X connect 1 0 9 0;
#X connect 2 0 8 0;
#X connect 3 0 7 0;
#X connect 4 0 3 0;
#X connect 5 0 2 0;
#X connect 6 0 1 0;
#X connect 7 0 24 0;
#X connect 8 0 24 0;
#X connect 9 0 24 0;
#X connect 10 0 0 0;
#X connect 10 0 0 1;
#X connect 12 0 20 0;
#X connect 13 0 19 0;
#X connect 14 0 18 0;
#X connect 15 0 14 0;
#X connect 16 0 13 0;
#X connect 17 0 12 0;
#X connect 18 0 22 0;
#X connect 19 0 22 0;
#X connect 20 0 22 0;
#X connect 21 0 11 0;
#X connect 21 0 11 1;
#X connect 22 0 26 0;
#X connect 23 0 24 1;
#X connect 24 0 10 0;
#X connect 25 0 26 1;
#X connect 26 0 21 0;
