#N canvas 870 163 510 434 12;
#X obj 149 34 dumpOSC 3333;
#X obj 98 269 sendOSC;
#X obj 149 66 route /tuio/2Dobj;
#X obj 149 98 route set;
#X floatatom 250 106 5 0 0 0 - - -;
#X floatatom 270 131 5 0 0 0 - - -;
#X text 306 103 session id;
#X text 328 128 fiducial id;
#X obj 64 160 loadbang;
#X msg 64 195 connect localhost 9999;
#X msg 349 220 send /tuio/a \$1;
#X msg 366 192 send /tuio/ra \$1;
#X msg 326 248 send /tuio/dr \$1;
#X msg 306 275 send /tuio/dy \$1;
#X msg 288 302 send /tuio/dx \$1;
#X msg 269 331 send /tuio/r \$1;
#X obj 190 161 unpack f f f f f f f f f f;
#X msg 250 359 send /tuio/y \$1;
#X msg 229 388 send /tuio/x \$1;
#X connect 0 0 2 0;
#X connect 2 0 3 0;
#X connect 3 0 16 0;
#X connect 8 0 9 0;
#X connect 9 0 1 0;
#X connect 10 0 1 0;
#X connect 11 0 1 0;
#X connect 12 0 1 0;
#X connect 13 0 1 0;
#X connect 14 0 1 0;
#X connect 15 0 1 0;
#X connect 16 0 4 0;
#X connect 16 1 5 0;
#X connect 16 2 18 0;
#X connect 16 3 17 0;
#X connect 16 4 15 0;
#X connect 16 5 14 0;
#X connect 16 6 13 0;
#X connect 16 7 12 0;
#X connect 16 8 10 0;
#X connect 16 9 11 0;
#X connect 17 0 1 0;
#X connect 18 0 1 0;
