#N canvas 114 105 530 218 10;
#X obj 7 6 dumpOSC 9000;
#X obj 265 114 change;
#X obj 265 142 outlet buttonA;
#X obj 388 145 change;
#X obj 388 173 outlet buttonB;
#X obj 7 62 unpack f f f f;
#X obj 7 34 route /wii/1/accel/pry;
#X obj 265 86 route /wii/1/button/A;
#X obj 388 117 route /wii/1/button/B;
#X obj 136 58 route /wii/1/accel/xyz;
#X obj 136 86 unpack f f f;
#X obj 7 90 outlet pitch;
#X obj 33 117 outlet yaw;
#X obj 60 144 outlet roll;
#X obj 87 170 outlet accel;
#X obj 136 114 outlet x;
#X obj 170 144 outlet y;
#X obj 205 170 outlet z;
#X connect 0 0 6 0;
#X connect 1 0 2 0;
#X connect 3 0 4 0;
#X connect 5 0 11 0;
#X connect 5 1 12 0;
#X connect 5 2 13 0;
#X connect 5 3 14 0;
#X connect 6 0 5 0;
#X connect 6 1 9 0;
#X connect 7 0 1 0;
#X connect 7 1 8 0;
#X connect 8 0 3 0;
#X connect 9 0 10 0;
#X connect 9 1 7 0;
#X connect 10 0 15 0;
#X connect 10 1 16 0;
#X connect 10 2 17 0;
