#N canvas 381 272 901 601 10;
#X obj 202 99 hsl 128 15 0 127 0 0 empty empty empty -2 -6 0 10 -262144
-1 -1 3182 1;
#X obj 199 59 * 127;
#X obj 199 198 readsf~;
#X obj 199 117 > 64;
#X obj 199 137 change;
#X msg 199 177 1;
#X obj 199 157 route;
#X obj 5 102 vsl 15 128 0 127 0 0 empty empty empty 0 -8 0 10 -262144
-1 -1 8443 1;
#X obj 25 102 vsl 15 128 0 127 0 0 empty empty empty 0 -8 0 10 -262144
-1 -1 4390 1;
#X obj 46 102 vsl 15 128 0 127 0 0 empty empty empty 0 -8 0 10 -262144
-1 -1 3142 1;
#X obj 199 79 average 25;
#X obj 367 61 change;
#X obj 367 81 route;
#X obj 367 101 bng 15 250 50 0 empty empty empty 0 -6 0 10 -262144
-1 -1;
#X obj 367 119 f 0;
#X obj 402 119 + 1;
#X floatatom 367 159 5 0 0 0 - - -;
#X obj 367 139 mod 8;
#X obj -42 79 average 25;
#X obj 25 79 average 25;
#X obj 93 79 average 25;
#X obj -10 236 int;
#X floatatom -10 257 5 0 0 0 - - -;
#X obj 25 236 int;
#X floatatom 25 257 5 0 0 0 - - -;
#X obj 60 236 int;
#X floatatom 60 257 5 0 0 0 - - -;
#X obj -42 59 * 128;
#X obj 26 59 * 128;
#X obj 93 59 * 128;
#N canvas 0 22 1095 327 wii 0;
#X obj 265 114 change;
#X obj 265 142 outlet buttonA;
#X obj 388 149 change;
#X obj 388 177 outlet buttonB;
#X obj 7 62 unpack f f f f;
#X obj 7 34 route /wii/1/accel/pry;
#X obj 265 86 route /wii/1/button/A;
#X obj 388 121 route /wii/1/button/B;
#X obj 136 58 route /wii/1/accel/xyz;
#X obj 136 86 unpack f f f;
#X obj 7 90 outlet pitch;
#X obj 33 117 outlet yaw;
#X obj 60 144 outlet roll;
#X obj 87 170 outlet accel;
#X obj 136 114 outlet x;
#X obj 170 144 outlet y;
#X obj 205 170 outlet z;
#X obj 7 5 dumpOSC 9000;
#X obj 511 179 change;
#X obj 511 151 route /wii/1/button/Up;
#X obj 511 207 outlet buttonUp;
#X obj 640 206 change;
#X obj 640 233 outlet buttonDown;
#X obj 640 179 route /wii/1/button/Down;
#X obj 781 234 change;
#X obj 922 260 change;
#X obj 781 206 route /wii/1/button/Left;
#X obj 922 233 route /wii/1/button/Right;
#X obj 922 287 outlet buttonRight;
#X obj 781 263 outlet buttonLeft;
#X connect 0 0 1 0;
#X connect 2 0 3 0;
#X connect 4 0 10 0;
#X connect 4 1 11 0;
#X connect 4 2 12 0;
#X connect 4 3 13 0;
#X connect 5 0 4 0;
#X connect 5 1 8 0;
#X connect 6 0 0 0;
#X connect 6 1 7 0;
#X connect 7 0 2 0;
#X connect 7 1 19 0;
#X connect 8 0 9 0;
#X connect 8 1 6 0;
#X connect 9 0 14 0;
#X connect 9 1 15 0;
#X connect 9 2 16 0;
#X connect 17 0 5 0;
#X connect 18 0 20 0;
#X connect 19 0 18 0;
#X connect 19 1 23 0;
#X connect 21 0 22 0;
#X connect 23 0 21 0;
#X connect 23 1 26 0;
#X connect 24 0 29 0;
#X connect 25 0 28 0;
#X connect 26 0 24 0;
#X connect 26 1 27 0;
#X connect 27 0 25 0;
#X restore 122 8 pd wii;
#X obj 411 61 change;
#X obj 411 81 route;
#X obj 411 101 bng 15 250 50 0 empty empty empty 0 -6 0 10 -262144
-1 -1;
#X obj 199 219 dac~;
#X msg 367 196 open \$1.wav;
#X obj 367 176 + 1;
#X connect 0 0 3 0;
#X connect 1 0 10 0;
#X connect 2 0 34 0;
#X connect 2 0 34 1;
#X connect 3 0 4 0;
#X connect 4 0 6 0;
#X connect 5 0 2 0;
#X connect 6 0 5 0;
#X connect 6 1 13 0;
#X connect 7 0 21 0;
#X connect 8 0 23 0;
#X connect 9 0 25 0;
#X connect 10 0 0 0;
#X connect 11 0 12 0;
#X connect 12 1 13 0;
#X connect 13 0 14 0;
#X connect 14 0 15 0;
#X connect 14 0 17 0;
#X connect 15 0 14 1;
#X connect 16 0 36 0;
#X connect 17 0 16 0;
#X connect 18 0 7 0;
#X connect 19 0 8 0;
#X connect 20 0 9 0;
#X connect 21 0 22 0;
#X connect 23 0 24 0;
#X connect 25 0 26 0;
#X connect 27 0 18 0;
#X connect 28 0 19 0;
#X connect 29 0 20 0;
#X connect 30 0 27 0;
#X connect 30 1 28 0;
#X connect 30 2 29 0;
#X connect 30 3 1 0;
#X connect 30 7 11 0;
#X connect 30 8 31 0;
#X connect 31 0 32 0;
#X connect 32 1 33 0;
#X connect 35 0 2 0;
#X connect 36 0 35 0;
